<svg viewBox = "0 0 88 88" width="88" height="88" xmlns="http://www.w3.org/2000/svg"><g transform="matrix(1 0 0 1 44 44)"  ><g style=""   ><g transform="matrix(1 0 0 1 0 12.22)"  ><path style="stroke: none; stroke-width: 1; stroke-dasharray: none; stroke-linecap: butt; stroke-dashoffset: 0; stroke-linejoin: miter; stroke-miterlimit: 4; fill: rgb(144,149,160); fill-rule: evenodd; opacity: 1;"  transform=" translate(-44, -56.22)" d="M 12.8972 36.4446 C 16.2925 50.4713 28.9296 60.8889 43.9999 60.8889 C 59.0702 60.8889 71.7073 50.4713 75.1026 36.4446 C 75.689 38.8671 75.9998 41.3973 75.9998 44.0001 C 75.9998 61.6732 61.673 76 43.9999 76 C 26.3268 76 12 61.6732 12 44.0001 C 12 41.3973 12.3107 38.8671 12.8972 36.4446 Z" stroke-linecap="round" /></g><g transform="matrix(1 0 0 1 -0.11 -11.57)"  ><path style="stroke: none; stroke-width: 1; stroke-dasharray: none; stroke-linecap: butt; stroke-dashoffset: 0; stroke-linejoin: miter; stroke-miterlimit: 4; fill: rgb(144,149,160); fill-rule: nonzero; opacity: 1;"  transform=" translate(-43.89, -32.43)" d="M 43.891 12 C 44.1103 12 44.329 12.0024 44.5473 12.0068 C 45.697 12.03 46.8317 12.1145 47.9486 12.2559 C 48.3168 12.3024 48.6831 12.3541 49.0473 12.4131 L 49.0453 12.4131 C 60.8053 14.3177 70.4163 22.6319 74.1801 33.6553 C 71.5466 41.5078 66.05 48.5724 58.9555 52.8691 C 59.5635 50.0528 59.89 47.0772 59.89 44 C 59.89 30.3844 53.5125 18.755 44.5228 14.1328 C 33.6449 19.2431 26.1128 30.2975 26.1127 43.1113 C 26.1127 46.164 26.5419 49.1166 27.3402 51.9131 C 20.9656 47.5655 16.0465 40.9506 13.6 33.6553 C 17.4259 22.4495 27.2949 14.0438 39.3207 12.3242 L 39.3187 12.3242 C 39.5248 12.2947 39.7315 12.2667 39.9389 12.2412 C 40.0295 12.23 40.1204 12.2204 40.2113 12.21 C 40.3147 12.1981 40.4182 12.1866 40.5219 12.1758 C 40.633 12.1642 40.7444 12.1531 40.8559 12.1426 C 40.9423 12.1344 41.0289 12.1266 41.1156 12.1191 C 41.2232 12.1099 41.331 12.1009 41.4389 12.0928 C 41.5698 12.0828 41.701 12.0738 41.8324 12.0654 C 41.8815 12.0623 41.9307 12.0595 41.9799 12.0566 C 42.1384 12.0473 42.2973 12.0393 42.4564 12.0322 C 42.5173 12.0295 42.5781 12.0268 42.6391 12.0244 C 42.8242 12.0173 43.0098 12.0118 43.1957 12.0078 C 43.2104 12.0075 43.225 12.0062 43.2396 12.0059 C 43.4561 12.0015 43.6735 12 43.891 12 Z" stroke-linecap="round" /></g></g></g></svg>