<svg viewBox = "0 0 88 88" width="88" height="88" xmlns="http://www.w3.org/2000/svg"><g transform="matrix(1 0 0 1 44 44)"  ><g style=""   ><g transform="matrix(1 0 0 1 1.68 1.68)"  ><path style="stroke: none; stroke-width: 1; stroke-dasharray: none; stroke-linecap: butt; stroke-dashoffset: 0; stroke-linejoin: miter; stroke-miterlimit: 4; fill: rgb(144,149,160); fill-rule: nonzero; opacity: 1;"  transform=" translate(-45.68, -45.68)" d="M 45.9158 12.2349 C 46.0629 12.2358 46.21 12.238 46.3572 12.2408 C 46.463 12.2429 46.5688 12.2446 46.6746 12.2476 C 46.8067 12.2515 46.9389 12.2569 47.0711 12.2623 C 47.2058 12.2678 47.3406 12.2727 47.4754 12.2799 C 47.5923 12.2861 47.709 12.2949 47.8259 12.3023 C 47.959 12.3108 48.0923 12.3177 48.2254 12.3277 C 48.3309 12.3357 48.4362 12.3461 48.5418 12.3551 C 48.8176 12.3786 49.0933 12.4057 49.3689 12.4361 C 49.4926 12.4498 49.6164 12.4631 49.74 12.4781 C 49.8371 12.4899 49.934 12.5035 50.031 12.5162 C 50.202 12.5386 50.3729 12.5615 50.5437 12.5865 C 50.6284 12.5989 50.713 12.6125 50.7976 12.6256 C 50.9617 12.6509 51.1259 12.6768 51.2898 12.7047 C 51.4006 12.7235 51.5112 12.7433 51.6218 12.7633 C 51.7789 12.7916 51.9357 12.8215 52.0925 12.8521 C 52.1768 12.8686 52.2612 12.8848 52.3455 12.9019 C 52.5208 12.9376 52.6959 12.9747 52.8709 13.0133 C 52.9653 13.0341 53.0597 13.0551 53.1541 13.0767 C 53.3112 13.1128 53.468 13.1506 53.6248 13.1891 C 53.7221 13.2129 53.8195 13.2366 53.9168 13.2613 C 54.0642 13.2989 54.211 13.3389 54.3582 13.3785 C 54.472 13.4092 54.5863 13.4384 54.7 13.4703 C 54.834 13.508 54.9675 13.5481 55.1013 13.5875 C 55.2564 13.6331 55.4115 13.6791 55.5662 13.7271 C 55.781 13.7938 55.9957 13.8619 56.2097 13.9332 C 56.2411 13.9436 56.2722 13.9549 56.3035 13.9654 C 56.5209 14.0385 56.7383 14.1132 56.9548 14.191 C 57.0446 14.2233 57.1338 14.2575 57.2234 14.2906 C 57.3792 14.3481 57.5349 14.4064 57.6902 14.4664 C 57.7943 14.5066 57.8979 14.5481 58.0017 14.5894 C 58.1415 14.645 58.2813 14.7008 58.4207 14.7584 C 58.5368 14.8064 58.6525 14.8555 58.7683 14.9049 C 58.9063 14.9637 59.0439 15.0237 59.1814 15.0846 C 59.2823 15.1292 59.3835 15.1736 59.4841 15.2193 C 59.6373 15.289 59.7896 15.361 59.9422 15.4332 C 60.0388 15.4789 60.1358 15.5242 60.2322 15.5709 C 60.3638 15.6347 60.4946 15.7005 60.6257 15.7662 C 60.7325 15.8197 60.8396 15.8726 60.9461 15.9273 C 61.1302 16.022 61.3137 16.1189 61.4968 16.2174 C 61.557 16.2497 61.6175 16.2813 61.6775 16.3141 C 61.9192 16.4459 62.1604 16.5809 62.4002 16.7193 C 62.6318 16.8531 62.8614 16.9891 63.0886 17.1275 C 63.1874 17.1877 63.2846 17.2501 63.3826 17.3111 C 63.5235 17.3989 63.6643 17.4862 63.8035 17.5758 C 63.8801 17.6251 63.9559 17.6753 64.032 17.7252 C 64.1921 17.8301 64.3508 17.9363 64.5086 18.0435 C 64.5769 18.09 64.6447 18.1373 64.7127 18.1842 C 64.8556 18.2829 64.9975 18.3824 65.1384 18.483 C 65.2365 18.553 65.3343 18.623 65.4314 18.6939 C 65.5583 18.7865 65.6841 18.8801 65.8093 18.9742 C 65.8923 19.0365 65.9752 19.0987 66.0574 19.1617 C 66.1818 19.2571 66.3048 19.3539 66.4275 19.4508 C 66.5267 19.5291 66.6262 19.6069 66.7244 19.6861 C 66.8416 19.7808 66.9573 19.8772 67.073 19.9732 C 67.1492 20.0365 67.226 20.0988 67.3015 20.1627 C 67.9137 20.6802 68.5036 21.2167 69.0711 21.7711 C 69.148 21.8463 69.2235 21.9228 69.2996 21.9986 C 69.4057 22.1043 69.5115 22.21 69.616 22.317 C 69.706 22.4091 69.7948 22.5023 69.8836 22.5953 C 69.9752 22.6913 70.0666 22.7874 70.157 22.8844 C 70.2398 22.9733 70.3213 23.0632 70.4031 23.1529 C 70.5001 23.2593 70.5967 23.3658 70.6922 23.4732 C 70.7717 23.5628 70.851 23.6524 70.9295 23.7428 C 71.0192 23.846 71.1077 23.9501 71.1961 24.0543 C 71.2772 24.1501 71.3583 24.2458 71.4382 24.3424 C 71.5258 24.4481 71.6119 24.555 71.698 24.6617 C 71.7721 24.7534 71.8467 24.8447 71.9197 24.9371 C 72.2048 25.2979 72.4808 25.6647 72.7498 26.0357 C 72.7849 26.0842 72.8214 26.1316 72.8562 26.1803 C 73.0044 26.387 73.1496 26.5955 73.2927 26.8053 C 73.3246 26.852 73.3559 26.899 73.3875 26.9459 C 73.5019 27.1153 73.6152 27.2853 73.7263 27.4566 C 73.7721 27.5273 73.8168 27.5986 73.8621 27.6695 C 73.9515 27.8097 74.0405 27.95 74.1277 28.0914 C 74.1853 28.1848 74.2419 28.2787 74.2986 28.3726 C 74.3787 28.5053 74.4578 28.6384 74.5359 28.7721 C 74.5846 28.8554 74.6324 28.9393 74.6804 29.023 C 74.7587 29.1597 74.8365 29.2965 74.9129 29.4342 C 74.964 29.5264 75.0149 29.6188 75.0652 29.7115 C 75.1355 29.8411 75.2037 29.9717 75.2722 30.1021 C 75.3267 30.2059 75.3819 30.3093 75.4353 30.4137 C 75.4994 30.5389 75.5623 30.6647 75.6248 30.7906 C 75.6735 30.8888 75.7225 30.9869 75.7703 31.0855 C 75.8316 31.2123 75.8912 31.3399 75.9509 31.4674 C 76.0043 31.5812 76.0581 31.6948 76.1101 31.8092 C 76.3112 32.2512 76.5029 32.6972 76.6843 33.1471 C 76.7267 33.252 76.7661 33.3581 76.8074 33.4635 C 76.8663 33.614 76.9254 33.7643 76.9822 33.9156 C 77.0137 33.9997 77.0441 34.0842 77.075 34.1685 C 77.1258 34.3073 77.1764 34.4461 77.2254 34.5855 C 77.2693 34.7106 77.3119 34.836 77.3543 34.9615 C 77.3974 35.0892 77.4396 35.2171 77.4812 35.3453 C 77.5124 35.4415 77.5427 35.5379 77.573 35.6344 C 77.6198 35.7832 77.666 35.9322 77.7107 36.0816 C 77.7427 36.1883 77.7746 36.295 77.8054 36.4019 C 77.8363 36.5089 77.8665 36.616 77.8963 36.7232 C 77.9288 36.8403 77.9617 36.9573 77.9929 37.0748 C 78.0324 37.2232 78.0697 37.3722 78.1072 37.5211 C 78.1357 37.6343 78.1648 37.7474 78.1922 37.8609 C 78.2264 38.0032 78.2584 38.146 78.2908 38.2887 C 78.3174 38.4059 78.3455 38.5227 78.3709 38.6402 C 78.5282 39.3698 78.6598 40.1051 78.7683 40.8443 C 78.7868 40.9702 78.804 41.0962 78.8211 41.2223 C 78.8389 41.354 78.8566 41.4858 78.8728 41.6178 C 78.8853 41.7189 78.8964 41.8202 78.908 41.9215 C 78.9276 42.0942 78.9466 42.267 78.9636 42.44 C 78.9712 42.5168 78.9781 42.5936 78.9851 42.6705 C 79.0001 42.8344 79.0136 42.9985 79.0261 43.1627 C 79.0336 43.26 79.041 43.3573 79.0476 43.4547 C 79.0587 43.618 79.0683 43.7814 79.0769 43.9449 C 79.0823 44.0474 79.0881 44.1499 79.0925 44.2525 C 79.1002 44.4285 79.1062 44.6046 79.1111 44.7808 C 79.1131 44.8528 79.1154 44.9247 79.117 44.9967 C 79.125 45.3726 79.1255 45.7489 79.1209 46.1256 C 79.1183 46.329 79.1144 46.5324 79.1082 46.7359 C 79.1023 46.926 79.0958 47.1161 79.0867 47.3062 C 79.0802 47.4423 79.0705 47.5783 79.0623 47.7144 C 79.0552 47.8316 79.0491 47.9488 79.0408 48.066 C 79.0325 48.1826 79.0229 48.2991 79.0134 48.4156 C 79.001 48.5689 78.988 48.7223 78.9734 48.8756 C 78.9655 48.9579 78.9575 49.0403 78.949 49.1226 C 78.9305 49.3024 78.9099 49.482 78.8884 49.6617 C 78.878 49.749 78.8673 49.8362 78.8562 49.9234 C 78.8331 50.1048 78.8082 50.2861 78.782 50.4674 C 78.7692 50.5559 78.7564 50.6445 78.7429 50.733 C 78.7218 50.8715 78.6985 51.0097 78.6756 51.148 C 78.6534 51.2818 78.632 51.4158 78.6082 51.5494 C 78.5898 51.6524 78.5699 51.7551 78.5506 51.858 C 78.5232 52.0035 78.4969 52.1492 78.4675 52.2945 C 78.3666 52.7945 78.2533 53.2932 78.1287 53.7906 C 78.1007 53.9021 78.0709 54.0132 78.0418 54.1246 C 78.0051 54.2649 77.969 54.4055 77.9304 54.5455 C 77.896 54.6705 77.859 54.7948 77.823 54.9195 C 77.7868 55.0452 77.7505 55.171 77.7127 55.2965 C 77.676 55.418 77.6384 55.5394 77.6004 55.6607 C 77.5564 55.8009 77.5115 55.9408 77.4656 56.0807 C 77.4316 56.1843 77.3972 56.2878 77.3621 56.3912 C 77.3128 56.5363 77.2621 56.681 77.2107 56.8258 C 77.1702 56.9398 77.1294 57.0538 77.0877 57.1676 C 77.0689 57.2188 77.052 57.2707 77.033 57.3219 C 77.0315 57.3236 77.0295 57.325 77.0281 57.3267 C 76.3843 59.053 75.5913 60.7503 74.6394 62.399 C 65.4052 78.3929 44.9538 83.8734 28.9597 74.6392 C 12.9656 65.405 7.48627 44.9527 16.7205 28.9586 C 17.6628 27.3264 18.7232 25.8048 19.8826 24.3961 C 19.8834 24.3941 19.8847 24.3923 19.8855 24.3902 C 19.9208 24.3474 19.9565 24.3049 19.992 24.2623 C 20.0819 24.1542 20.1724 24.0468 20.2634 23.94 C 20.3602 23.8267 20.4584 23.7149 20.5564 23.6031 C 20.6215 23.5288 20.686 23.4541 20.7517 23.3805 C 20.8683 23.2498 20.9869 23.1212 21.1052 22.9928 C 21.1705 22.9219 21.2347 22.8501 21.3006 22.7799 C 21.4223 22.6501 21.5462 22.5227 21.6697 22.3951 C 21.7311 22.3317 21.7915 22.2675 21.8533 22.2047 C 22.0106 22.0448 22.1698 21.8873 22.3298 21.731 C 22.3801 21.682 22.4297 21.6323 22.4802 21.5836 C 22.6401 21.4295 22.8011 21.277 22.9636 21.1266 C 23.0354 21.0601 23.1092 20.996 23.1814 20.9303 C 23.3048 20.818 23.4277 20.7055 23.5525 20.5953 C 23.6306 20.5264 23.7102 20.4593 23.7888 20.3912 C 23.906 20.2897 24.0229 20.1881 24.1414 20.0885 C 24.2318 20.0124 24.3227 19.937 24.4138 19.8619 C 24.5211 19.7736 24.6289 19.6861 24.7371 19.5992 C 24.8351 19.5206 24.9332 19.4423 25.032 19.3648 C 25.1363 19.283 25.2413 19.2021 25.3465 19.1217 C 25.4493 19.043 25.5524 18.9647 25.656 18.8873 C 25.7516 18.8159 25.8479 18.7456 25.9441 18.6754 C 26.0564 18.5934 26.1688 18.5117 26.282 18.4312 C 26.384 18.3587 26.4869 18.2877 26.5896 18.2164 C 26.6943 18.1438 26.7987 18.071 26.9041 17.9996 C 27.0317 17.9132 27.1602 17.8283 27.2888 17.7437 C 27.3707 17.6899 27.4516 17.6347 27.534 17.5816 C 27.9612 17.3062 28.3946 17.0417 28.8328 16.7867 C 28.9312 16.7294 29.0307 16.674 29.1297 16.6178 C 29.256 16.5459 29.3823 16.474 29.5095 16.4039 C 29.6101 16.3485 29.7112 16.2942 29.8123 16.2398 C 29.9348 16.1739 30.0572 16.1079 30.1804 16.0435 C 30.2933 15.9847 30.4068 15.9273 30.5203 15.8697 C 30.6297 15.8142 30.7394 15.759 30.8494 15.7047 C 30.9713 15.6445 31.0939 15.5856 31.2166 15.5269 C 31.3206 15.4771 31.4246 15.4272 31.5291 15.3785 C 31.6553 15.3197 31.782 15.2619 31.909 15.2047 C 32.0287 15.1507 32.149 15.0981 32.2693 15.0455 C 32.3695 15.0017 32.4695 14.9574 32.5701 14.9146 C 32.7293 14.8469 32.8894 14.7816 33.0496 14.7164 C 33.1064 14.6933 33.1626 14.6689 33.2195 14.6461 L 33.3611 14.5894 C 33.509 14.531 33.6578 14.4749 33.8064 14.4185 C 33.8697 14.3945 33.9324 14.3689 33.9959 14.3453 C 34.4784 14.1657 34.9649 13.9976 35.4548 13.8404 C 35.5149 13.8211 35.5753 13.8027 35.6355 13.7838 C 35.8197 13.7258 36.0041 13.6686 36.1892 13.6139 C 36.2662 13.5911 36.3435 13.5697 36.4207 13.5474 C 36.588 13.4993 36.7556 13.4524 36.9236 13.4068 C 37.0234 13.3798 37.1234 13.3539 37.2234 13.3277 C 37.3642 13.2909 37.505 13.2543 37.6463 13.2193 C 37.7477 13.1942 37.8493 13.1702 37.9509 13.1461 C 38.1147 13.1071 38.2788 13.0693 38.4431 13.0328 C 38.5252 13.0146 38.607 12.9957 38.6892 12.9781 C 38.8698 12.9394 39.051 12.9035 39.2322 12.8678 C 39.2986 12.8547 39.3649 12.8404 39.4314 12.8277 C 39.6312 12.7896 39.8315 12.7538 40.032 12.7193 C 40.0883 12.7096 40.1446 12.6994 40.2009 12.69 C 40.3608 12.6634 40.5211 12.6392 40.6814 12.6148 C 41.1275 12.5471 41.5752 12.4888 42.0242 12.4391 C 42.1823 12.4215 42.3404 12.4035 42.4988 12.3883 C 42.5733 12.3811 42.6479 12.3754 42.7224 12.3687 C 42.9114 12.3518 43.1005 12.3356 43.2898 12.3219 C 43.378 12.3155 43.4662 12.31 43.5545 12.3043 C 43.7028 12.2947 43.8512 12.2855 43.9998 12.2779 C 44.1247 12.2715 44.2497 12.2663 44.3748 12.2613 C 44.5163 12.2557 44.6579 12.2505 44.7996 12.2467 C 44.9167 12.2435 45.0339 12.2408 45.1511 12.2389 C 45.2754 12.2368 45.3998 12.2356 45.5242 12.2349 C 45.6547 12.2342 45.7852 12.2341 45.9158 12.2349 Z M 54.9793 28.6939 C 40.8792 20.5533 25.1144 21.4606 19.7683 30.7203 C 14.4224 39.98 21.519 54.0855 35.6189 62.2262 C 49.719 70.3668 65.4828 69.4595 70.8289 60.1998 C 76.1749 50.9401 69.0791 36.8346 54.9793 28.6939 Z" stroke-linecap="round" /></g><g transform="matrix(1 0 0 1 1.3 1.46)"  ><path style="stroke: none; stroke-width: 1; stroke-dasharray: none; stroke-linecap: butt; stroke-dashoffset: 0; stroke-linejoin: miter; stroke-miterlimit: 4; fill: rgb(144,149,160); fill-rule: nonzero; opacity: 1;"  transform=" translate(-45.3, -45.46)" d="M 26.6271 34.68 C 30.0292 28.7875 41.1472 28.8367 51.4591 34.7904 C 61.771 40.744 67.3719 50.348 63.9699 56.2406 C 60.5675 62.1326 49.4505 62.0827 39.1388 56.1292 C 28.8269 50.1756 23.225 40.5726 26.6271 34.68 Z M 48.8185 39.3626 C 42.2946 35.5961 35.4305 35.2728 33.4865 38.64 C 31.5427 42.0071 35.2549 47.7895 41.7785 51.556 C 48.3023 55.3226 55.1674 55.6468 57.1115 52.2796 C 59.0555 48.9124 55.3424 43.1292 48.8185 39.3626 Z" stroke-linecap="round" /></g></g></g></svg>