<svg viewBox = "0 0 88 88" width="88" height="88" xmlns="http://www.w3.org/2000/svg"><g transform="matrix(1 0 0 1 44 44)"  ><g style=""   ><g transform="matrix(1 0 0 1 13.01 26.03)"  ><path style="stroke: none; stroke-width: 1; stroke-dasharray: none; stroke-linecap: butt; stroke-dashoffset: 0; stroke-linejoin: miter; stroke-miterlimit: 4; fill: rgb(144,149,160); fill-rule: nonzero; opacity: 1;"  transform=" translate(-57.01, -70.03)" d="M 80 70.0258 C 80 75.5241 75.5241 80 70.0257 80 C 69.6784 80 69.3408 79.9807 69.0032 79.9518 C 63.254 79.4308 60.8906 74.6463 57.0129 74.6463 C 53.1351 74.6463 50.7717 79.4212 45.0226 79.9518 C 44.6849 79.9904 44.3473 80 44 80 C 38.5016 80 34.0257 75.5241 34.0257 70.0258 C 34.0257 64.5273 38.5016 60.0514 44 60.0514 C 50.5113 60.0514 52.9132 65.4148 57.0129 65.4148 C 61.1126 65.4148 63.5241 60.0514 70.0257 60.0514 C 75.5241 60.0514 80 64.5274 80 70.0258 Z" stroke-linecap="round" /></g><g transform="matrix(1 0 0 1 -26.03 13.01)"  ><path style="stroke: none; stroke-width: 1; stroke-dasharray: none; stroke-linecap: butt; stroke-dashoffset: 0; stroke-linejoin: miter; stroke-miterlimit: 4; fill: rgb(144,149,160); fill-rule: nonzero; opacity: 1;"  transform=" translate(-17.97, -57.01)" d="M 17.9743 80 C 12.4759 80 8.00005 75.5241 8.00005 70.0258 C 8.00005 69.6784 8.01934 69.3409 8.04829 69.0033 C 8.56918 63.2541 13.3537 60.8907 13.3537 57.0128 C 13.3537 53.1351 8.56918 50.7717 8.04829 45.0225 C 8.0097 44.6849 8.00005 44.3473 8.00005 44 C 8.00005 38.5016 12.4759 34.0257 17.9743 34.0257 C 23.4727 34.0257 27.9486 38.5016 27.9486 44 C 27.9486 50.5112 22.5853 52.9131 22.5853 57.0128 C 22.5853 61.1125 27.9486 63.5242 27.9486 70.0258 C 27.9486 75.5241 23.4727 80 17.9743 80 Z" stroke-linecap="round" /></g><g transform="matrix(1 0 0 1 0 0)"  ><path style="stroke: none; stroke-width: 1; stroke-dasharray: none; stroke-linecap: butt; stroke-dashoffset: 0; stroke-linejoin: miter; stroke-miterlimit: 4; fill: rgb(144,149,160); fill-rule: nonzero; opacity: 1;"  transform=" translate(-44, -44)" d="M 44 53.9743 C 49.4984 53.9743 53.9742 49.4984 53.9742 44 C 53.9742 38.5016 49.4984 34.0257 44 34.0257 C 38.5015 34.0257 34.0256 38.5016 34.0256 44 C 34.0256 49.4984 38.5015 53.9743 44 53.9743 Z" stroke-linecap="round" /></g><g transform="matrix(1 0 0 1 0 -13.01)"  ><path style="stroke: none; stroke-width: 1; stroke-dasharray: none; stroke-linecap: butt; stroke-dashoffset: 0; stroke-linejoin: miter; stroke-miterlimit: 4; fill: rgb(144,149,160); fill-rule: nonzero; opacity: 1;"  transform=" translate(-44, -30.99)" d="M 17.9742 27.9486 C 18.1479 27.9486 18.3119 27.9292 18.4855 27.9196 C 18.6591 27.9196 18.8231 27.9196 18.9968 27.8906 C 24.746 27.3698 27.1189 22.5852 30.9872 22.5852 C 34.8553 22.5852 37.2283 27.3698 42.9775 27.8906 C 43.1415 27.91 43.3151 27.91 43.4887 27.9196 C 43.6624 27.9196 43.8264 27.9486 44 27.9486 C 44.3473 27.9486 44.6849 27.9292 45.0225 27.9003 C 50.7717 27.3794 53.1351 22.5948 57.0128 22.5948 C 59.0868 22.5948 60.7267 23.9647 62.6849 25.3247 C 64.045 27.2829 65.4148 28.9228 65.4148 30.9968 C 65.4148 34.8746 60.6302 37.2379 60.1093 42.9871 C 60.09 43.1511 60.09 43.3247 60.0804 43.4887 C 60.0804 43.6624 60.0514 43.8264 60.0514 44 C 60.0514 49.4984 64.5273 53.9743 70.0257 53.9743 C 75.5241 53.9743 80 49.4984 80 44 C 80 43.8167 79.9806 43.6527 79.971 43.4887 C 79.971 43.3247 79.971 43.1511 79.9421 42.9871 C 79.4212 37.2379 74.6366 34.8649 74.6366 30.9968 C 74.6366 27.1286 79.4212 24.7459 79.9517 18.9968 C 79.971 18.8328 79.971 18.6592 79.9806 18.4855 C 79.9806 18.3119 80.0096 18.148 80.0096 17.9742 C 80 12.4759 75.5241 8.00001 70.0257 8.00001 C 63.5144 8.00001 61.1125 13.3633 57.0128 13.3633 C 52.9131 13.3633 50.5016 8.00001 44 8.00001 C 43.8264 8.00001 43.6624 8.0193 43.4887 8.02894 C 43.3151 8.02894 43.1511 8.02894 42.9775 8.05788 C 37.2283 8.57878 34.8553 13.3633 30.9872 13.3633 C 27.1189 13.3633 24.746 8.57878 18.9968 8.05788 C 18.8328 8.03858 18.6591 8.03858 18.4855 8.02894 C 18.3119 8.02894 18.1479 8 17.9742 8 C 12.4759 8 8 12.4759 8 17.9742 C 8 23.4726 12.4759 27.9486 17.9742 27.9486 Z" stroke-linecap="round" /></g></g></g></svg>